<svg class="main-svg" xmlns="http://www.w3.org/2000/svg" xmlns:xlink="http://www.w3.org/1999/xlink" width="852" height="483" style=""><rect x="0" y="0" width="852" height="483" style="fill: rgb(255, 255, 255); fill-opacity: 1;"/><defs id="defs-e5c92c"><g class="clips"><clipPath id="clipe5c92cxyplot" class="plotclip"><rect width="621" height="373"/></clipPath><clipPath class="axesclip" id="clipe5c92cx"><rect x="50" y="0" width="621" height="483"/></clipPath><clipPath class="axesclip" id="clipe5c92cy"><rect x="0" y="60" width="852" height="373"/></clipPath><clipPath class="axesclip" id="clipe5c92cxy"><rect x="50" y="60" width="621" height="373"/></clipPath></g><g class="gradients"/><g class="patterns"/></defs><g class="bglayer"/><g class="layer-below"><g class="imagelayer"/><g class="shapelayer"/></g><g class="cartesianlayer"><g class="subplot xy"><g class="layer-subplot"><g class="shapelayer"/><g class="imagelayer"/></g><g class="gridlayer"><g class="x"><path class="xgrid crisp" transform="translate(179.83,0)" d="M0,60v373" style="stroke: rgb(224, 224, 224); stroke-opacity: 1; stroke-width: 1px;"/><path class="xgrid crisp" transform="translate(309.65,0)" d="M0,60v373" style="stroke: rgb(224, 224, 224); stroke-opacity: 1; stroke-width: 1px;"/><path class="xgrid crisp" transform="translate(439.48,0)" d="M0,60v373" style="stroke: rgb(224, 224, 224); stroke-opacity: 1; stroke-width: 1px;"/><path class="xgrid crisp" transform="translate(569.3,0)" d="M0,60v373" style="stroke: rgb(224, 224, 224); stroke-opacity: 1; stroke-width: 1px;"/></g><g class="y"><path class="ygrid crisp" transform="translate(0,358.4)" d="M50,0h621" style="stroke: rgb(224, 224, 224); stroke-opacity: 1; stroke-width: 1px;"/><path class="ygrid crisp" transform="translate(0,283.8)" d="M50,0h621" style="stroke: rgb(224, 224, 224); stroke-opacity: 1; stroke-width: 1px;"/><path class="ygrid crisp" transform="translate(0,209.2)" d="M50,0h621" style="stroke: rgb(224, 224, 224); stroke-opacity: 1; stroke-width: 1px;"/><path class="ygrid crisp" transform="translate(0,134.6)" d="M50,0h621" style="stroke: rgb(224, 224, 224); stroke-opacity: 1; stroke-width: 1px;"/></g></g><g class="zerolinelayer"/><path class="xlines-below"/><path class="ylines-below"/><g class="overlines-below"/><g class="xaxislayer-below"/><g class="yaxislayer-below"/><g class="overaxes-below"/><g class="plot" transform="translate(50,60)" clip-path="url(#clipe5c92cxyplot)"><g class="scatterlayer mlayer"><g class="trace scatter traced75eb6" style="stroke-miterlimit: 2; opacity: 1;"><g class="fills"/><g class="errorbars"/><g class="lines"><path class="js-line" d="M0,227.44L36.78,220.65L38.95,220.29L86.55,213.09L88.71,212.77L134.15,205.35L136.32,204.93L164.45,198.73L166.61,198.18L190.41,191.4L192.57,190.71L218.54,181.45L220.7,180.6L246.67,169.47L248.83,168.47L281.29,152.54L283.45,151.43L350.53,117.47L352.69,116.48L376.49,106.47L378.66,105.66L398.13,99.12L400.3,98.49L419.77,93.78L421.93,93.36L439.24,90.85L441.41,90.63L458.72,89.73L460.88,89.71L480.36,90.49L482.52,90.68L501.99,93.1L504.16,93.44L530.12,98.49L532.29,98.96L595.03,112.55L597.2,112.9L616.67,115.36L618.84,115.54L621,115.71" style="vector-effect: non-scaling-stroke; fill: none; stroke: rgb(99, 110, 250); stroke-opacity: 1; stroke-width: 2px; opacity: 1;"/></g><g class="points"/><g class="text"/></g><g class="trace scatter tracedc6b20" style="stroke-miterlimit: 2; opacity: 1;"><g class="fills"/><g class="errorbars"/><g class="lines"><path class="js-line" d="M0,122.31L28.13,163.46L30.29,166.5L56.26,201.41L58.42,204.18L82.22,233.07L84.39,235.54L103.86,256.66L106.02,258.86L125.5,277.47L127.66,279.39L144.97,293.66L147.14,295.3L162.28,305.93L164.45,307.32L179.59,316.12L181.76,317.25L196.9,324.18L199.07,325.03L214.21,330.05L216.38,330.63L231.52,333.7L233.69,334L248.83,335.11L251,335.12L263.98,334.49L266.14,334.26L279.13,332.15L281.29,331.68L296.44,327.39L298.6,326.63L313.75,320.41L315.91,319.39L331.06,311.28L333.22,309.99L350.53,298.49L352.69,296.9L367.84,284.95L370,283.12L387.31,267.41L389.48,265.31L408.95,245.18L411.11,242.8L430.59,220.28L432.75,217.65L454.39,190.09L456.55,187.21L480.36,154.2L482.52,151.09L512.81,105.74L514.98,102.38L549.6,47.18L551.76,43.65L577.72,0.76L579.89,0L621,0" style="vector-effect: non-scaling-stroke; fill: none; stroke: rgb(239, 85, 59); stroke-opacity: 1; stroke-width: 2px; opacity: 1;"/></g><g class="points"/><g class="text"/></g><g class="trace scatter trace42fb17" style="stroke-miterlimit: 2; opacity: 1;"><g class="fills"/><g class="errorbars"/><g class="lines"><path class="js-line" d="M0,371.53L21.64,370.92L23.8,370.52L64.91,363.68L67.08,363.34L129.83,353.07L131.99,352.65L160.12,346.31L162.28,345.75L183.92,339.33L186.08,338.59L196.9,334.26L199.07,123.67L201.23,3.71L203.39,0.03L300.76,0.06L302.93,68.07L305.09,285.15L307.25,284.33L324.56,276.28L326.73,275.24L359.18,260.35L361.35,259.44L382.99,251.1L385.15,250.36L404.62,244.5L406.79,243.95L424.1,240.31L426.26,239.96L443.57,237.9L445.74,237.75L463.05,237.28L465.21,237.31L484.68,238.54L486.85,238.77L506.32,241.55L508.48,241.93L536.61,247.79L538.78,248.29L588.54,259.39L590.71,259.78L612.34,262.92L614.51,263.14L621,263.69" style="vector-effect: non-scaling-stroke; fill: none; stroke: rgb(0, 204, 150); stroke-opacity: 1; stroke-width: 2px; opacity: 1;"/></g><g class="points"/><g class="text"/></g></g></g><g class="overplot"/><path class="xlines-above crisp" d="M49,433.5H671" style="fill: none; stroke-width: 1px; stroke: rgb(136, 136, 136); stroke-opacity: 1;"/><path class="ylines-above crisp" d="M49.5,60V433" style="fill: none; stroke-width: 1px; stroke: rgb(136, 136, 136); stroke-opacity: 1;"/><g class="overlines-above"/><g class="xaxislayer-above"><g class="xtick"><text text-anchor="middle" x="0" y="453.2" transform="translate(50,0)" style="font-family: Arial; font-size: 16px; fill: rgb(0, 0, 0); fill-opacity: 1; white-space: pre; opacity: 1;">0</text></g><g class="xtick"><text text-anchor="middle" x="0" y="453.2" style="font-family: Arial; font-size: 16px; fill: rgb(0, 0, 0); fill-opacity: 1; white-space: pre; opacity: 1;" transform="translate(179.83,0)">5</text></g><g class="xtick"><text text-anchor="middle" x="0" y="453.2" style="font-family: Arial; font-size: 16px; fill: rgb(0, 0, 0); fill-opacity: 1; white-space: pre; opacity: 1;" transform="translate(309.65,0)">10</text></g><g class="xtick"><text text-anchor="middle" x="0" y="453.2" style="font-family: Arial; font-size: 16px; fill: rgb(0, 0, 0); fill-opacity: 1; white-space: pre; opacity: 1;" transform="translate(439.48,0)">15</text></g><g class="xtick"><text text-anchor="middle" x="0" y="453.2" style="font-family: Arial; font-size: 16px; fill: rgb(0, 0, 0); fill-opacity: 1; white-space: pre; opacity: 1;" transform="translate(569.3,0)">20</text></g></g><g class="yaxislayer-above"><g class="ytick"><text text-anchor="end" x="45.8" y="5.6" transform="translate(0,433)" style="font-family: Arial; font-size: 16px; fill: rgb(0, 0, 0); fill-opacity: 1; white-space: pre; opacity: 1;">0</text></g><g class="ytick"><text text-anchor="end" x="45.8" y="5.6" style="font-family: Arial; font-size: 16px; fill: rgb(0, 0, 0); fill-opacity: 1; white-space: pre; opacity: 1;" transform="translate(0,358.4)">0.2</text></g><g class="ytick"><text text-anchor="end" x="45.8" y="5.6" style="font-family: Arial; font-size: 16px; fill: rgb(0, 0, 0); fill-opacity: 1; white-space: pre; opacity: 1;" transform="translate(0,283.8)">0.4</text></g><g class="ytick"><text text-anchor="end" x="45.8" y="5.6" style="font-family: Arial; font-size: 16px; fill: rgb(0, 0, 0); fill-opacity: 1; white-space: pre; opacity: 1;" transform="translate(0,209.2)">0.6</text></g><g class="ytick"><text text-anchor="end" x="45.8" y="5.6" style="font-family: Arial; font-size: 16px; fill: rgb(0, 0, 0); fill-opacity: 1; white-space: pre; opacity: 1;" transform="translate(0,134.6)">0.8</text></g><g class="ytick"><text text-anchor="end" x="45.8" y="5.6" style="font-family: Arial; font-size: 16px; fill: rgb(0, 0, 0); fill-opacity: 1; white-space: pre; opacity: 1;" transform="translate(0,60)">1</text></g></g><g class="overaxes-above"/></g></g><g class="polarlayer"/><g class="ternarylayer"/><g class="geolayer"/><g class="funnelarealayer"/><g class="pielayer"/><g class="iciclelayer"/><g class="treemaplayer"/><g class="sunburstlayer"/><g class="glimages"/><defs id="topdefs-e5c92c"><g class="clips"/><clipPath id="legende5c92c"><rect width="157" height="82" x="0" y="0"/></clipPath></defs><g class="layer-above"><g class="imagelayer"/><g class="shapelayer"/></g><g class="infolayer"><g class="legend" pointer-events="all" transform="translate(683.42,60)"><rect class="bg" shape-rendering="crispEdges" width="157" height="82" x="0" y="0" style="stroke: rgb(68, 68, 68); stroke-opacity: 1; fill: rgb(255, 255, 255); fill-opacity: 1; stroke-width: 0px;"/><g class="scrollbox" transform="" clip-path="url(#legende5c92c)"><g class="groups"><g class="traces" transform="translate(0,16.9)" style="opacity: 1;"><text class="legendtext" text-anchor="start" x="40" y="6.24" style="font-family: Arial; font-size: 16px; fill: rgb(0, 0, 0); fill-opacity: 1; white-space: pre;">Wind Power</text><g class="layers" style="opacity: 1;"><g class="legendfill"/><g class="legendlines"><path class="js-line" d="M5,0h30" style="fill: none; stroke: rgb(99, 110, 250); stroke-opacity: 1; stroke-width: 2px;"/></g><g class="legendsymbols"><g class="legendpoints"/></g></g><rect class="legendtoggle" x="0" y="-11.9" width="151.1624984741211" height="23.8" style="fill: rgb(0, 0, 0); fill-opacity: 0;"/></g><g class="traces" transform="translate(0,40.7)" style="opacity: 1;"><text class="legendtext" text-anchor="start" x="40" y="6.24" style="font-family: Arial; font-size: 16px; fill: rgb(0, 0, 0); fill-opacity: 1; white-space: pre;">Grid Price</text><g class="layers" style="opacity: 1;"><g class="legendfill"/><g class="legendlines"><path class="js-line" d="M5,0h30" style="fill: none; stroke: rgb(239, 85, 59); stroke-opacity: 1; stroke-width: 2px;"/></g><g class="legendsymbols"><g class="legendpoints"/></g></g><rect class="legendtoggle" x="0" y="-11.9" width="151.1624984741211" height="23.8" style="fill: rgb(0, 0, 0); fill-opacity: 0;"/></g><g class="traces" transform="translate(0,64.5)" style="opacity: 1;"><text class="legendtext" text-anchor="start" x="40" y="6.24" style="font-family: Arial; font-size: 16px; fill: rgb(0, 0, 0); fill-opacity: 1; white-space: pre;">Optimal Actions</text><g class="layers" style="opacity: 1;"><g class="legendfill"/><g class="legendlines"><path class="js-line" d="M5,0h30" style="fill: none; stroke: rgb(0, 204, 150); stroke-opacity: 1; stroke-width: 2px;"/></g><g class="legendsymbols"><g class="legendpoints"/></g></g><rect class="legendtoggle" x="0" y="-11.9" width="151.1624984741211" height="23.8" style="fill: rgb(0, 0, 0); fill-opacity: 0;"/></g></g></g><rect class="scrollbar" rx="20" ry="3" width="0" height="0" x="0" y="0" style="fill: rgb(128, 139, 164); fill-opacity: 1;"/></g><g class="g-gtitle"><text class="gtitle" x="42.6" y="30" text-anchor="start" dy="0em" style="font-family: Arial; font-size: 22px; fill: rgb(0, 0, 0); opacity: 1; font-weight: normal; white-space: pre;">Simulation Episode with Actions from the Optimizer output</text></g><g class="g-xtitle"/><g class="g-ytitle"/></g></svg>