<svg class="main-svg" xmlns="http://www.w3.org/2000/svg" xmlns:xlink="http://www.w3.org/1999/xlink" width="1090" height="483" style=""><rect x="0" y="0" width="1090" height="483" style="fill: rgb(255, 255, 255); fill-opacity: 1;"/><defs id="defs-e35d2d"><g class="clips"><clipPath id="clipe35d2dxyplot" class="plotclip"><rect width="445.5" height="373"/></clipPath><clipPath id="clipe35d2dx2y2plot" class="plotclip"><rect width="445.49999999999994" height="373"/></clipPath><clipPath class="axesclip" id="clipe35d2dx"><rect x="50" y="0" width="445.5" height="483"/></clipPath><clipPath class="axesclip" id="clipe35d2dy"><rect x="0" y="60" width="1090" height="373"/></clipPath><clipPath class="axesclip" id="clipe35d2dxy"><rect x="50" y="60" width="445.5" height="373"/></clipPath><clipPath class="axesclip" id="clipe35d2dy2"><rect x="0" y="60" width="1090" height="373"/></clipPath><clipPath class="axesclip" id="clipe35d2dxy2"><rect x="50" y="60" width="445.5" height="373"/></clipPath><clipPath class="axesclip" id="clipe35d2dx2"><rect x="594.5" y="0" width="445.49999999999994" height="483"/></clipPath><clipPath class="axesclip" id="clipe35d2dx2y"><rect x="594.5" y="60" width="445.49999999999994" height="373"/></clipPath><clipPath class="axesclip" id="clipe35d2dx2y2"><rect x="594.5" y="60" width="445.49999999999994" height="373"/></clipPath></g><g class="gradients"/><g class="patterns"/></defs><g class="bglayer"/><g class="layer-below"><g class="imagelayer"/><g class="shapelayer"/></g><g class="cartesianlayer"><g class="subplot xy"><g class="layer-subplot"><g class="shapelayer"/><g class="imagelayer"/></g><g class="gridlayer"><g class="x"><path class="xgrid crisp" transform="translate(143.14,0)" d="M0,60v373" style="stroke: rgb(170, 170, 170); stroke-opacity: 1; stroke-width: 1px;"/><path class="xgrid crisp" transform="translate(236.27,0)" d="M0,60v373" style="stroke: rgb(170, 170, 170); stroke-opacity: 1; stroke-width: 1px;"/><path class="xgrid crisp" transform="translate(329.41,0)" d="M0,60v373" style="stroke: rgb(170, 170, 170); stroke-opacity: 1; stroke-width: 1px;"/><path class="xgrid crisp" transform="translate(422.54,0)" d="M0,60v373" style="stroke: rgb(170, 170, 170); stroke-opacity: 1; stroke-width: 1px;"/></g><g class="y"><path class="ygrid crisp" transform="translate(0,358.4)" d="M50,0h445.5" style="stroke: rgb(170, 170, 170); stroke-opacity: 1; stroke-width: 1px;"/><path class="ygrid crisp" transform="translate(0,283.8)" d="M50,0h445.5" style="stroke: rgb(170, 170, 170); stroke-opacity: 1; stroke-width: 1px;"/><path class="ygrid crisp" transform="translate(0,209.2)" d="M50,0h445.5" style="stroke: rgb(170, 170, 170); stroke-opacity: 1; stroke-width: 1px;"/><path class="ygrid crisp" transform="translate(0,134.6)" d="M50,0h445.5" style="stroke: rgb(170, 170, 170); stroke-opacity: 1; stroke-width: 1px;"/></g></g><g class="zerolinelayer"/><path class="xlines-below"/><path class="ylines-below"/><g class="overlines-below"/><g class="xaxislayer-below"/><g class="yaxislayer-below"/><g class="overaxes-below"/><g class="plot" transform="translate(50,60)" clip-path="url(#clipe35d2dxyplot)"><g class="scatterlayer mlayer"><g class="trace scatter trace323370" style="stroke-miterlimit: 2; opacity: 1;"><g class="fills"/><g class="errorbars"/><g class="lines"><path class="js-line" d="M0,94.15L7.76,95.17L9.31,95.2L17.07,94.52L18.63,94.2L26.39,91.72L27.94,91.05L37.25,85.88L38.81,84.84L49.67,76.46L51.22,75.13L86.93,44.31L88.48,43.26L97.79,38.04L99.34,37.37L107.11,34.88L108.66,34.57L116.42,33.94L117.97,34L125.73,35.18L127.29,35.59L136.6,39.05L138.15,39.78L150.57,46.77L152.12,47.75L180.06,64.93L181.61,65.71L192.48,70.19L194.03,70.69L203.35,72.82L204.9,73.04L215.76,73.6L217.32,73.56L231.29,72.23L232.84,72.03L251.47,70.03L253.02,69.99L262.33,70.44L263.89,70.66L271.65,72.42L273.2,72.93L280.96,76.22L282.51,77.04L291.83,83.07L293.38,84.26L304.24,93.81L305.8,95.33L321.32,111.97L322.87,113.71L343.05,135.37L344.6,136.85L355.47,145.93L357.02,147.02L364.78,151.55L366.33,152.27L374.1,154.86L375.65,155.18L383.41,155.79L384.96,155.71L392.72,154.47L394.28,154.05L403.59,150.57L405.14,149.85L419.11,142.26L420.66,141.35L439.29,131.16L440.84,130.46L445.5,128.57" style="vector-effect: non-scaling-stroke; fill: none; stroke: rgb(99, 110, 250); stroke-opacity: 1; stroke-width: 2px; opacity: 1;"/></g><g class="points"/><g class="text"/></g><g class="trace scatter trace4123fd" style="stroke-miterlimit: 2; opacity: 1;"><g class="fills"/><g class="errorbars"/><g class="lines"><path class="js-line" d="M0,80.33L23.28,87.02L24.84,87.52L52.78,97.32L54.33,97.9L122.63,123.3L124.18,123.8L147.47,130.6L149.02,131L175.41,137.07L176.96,137.39L232.84,149.24L234.39,149.66L253.02,155.5L254.57,156.06L270.09,162.43L271.65,163.15L287.17,171.15L288.72,172.03L305.8,182.75L307.35,183.81L325.98,197.53L327.53,198.74L357.02,223.08L358.57,224.39L389.62,249.44L391.17,250.58L406.69,261.12L408.25,262.07L422.22,269.58L423.77,270.29L436.19,274.99L437.74,275.45L445.5,277.3" style="vector-effect: non-scaling-stroke; fill: none; stroke: rgb(239, 85, 59); stroke-opacity: 1; stroke-width: 2px; opacity: 1;"/></g><g class="points"/><g class="text"/></g><g class="trace scatter trace3b37c1" style="stroke-miterlimit: 2; opacity: 1;"><g class="fills"/><g class="errorbars"/><g class="lines"><path class="js-line" d="M0,186.59L15.52,194.99L17.07,195.74L32.6,202.29L34.15,202.85L49.67,207.53L51.22,207.92L69.85,211.6L71.4,211.84L119.52,219.74L121.08,220.12L136.6,224.63L138.15,225.17L153.67,231.36L155.23,232.06L172.3,240.62L173.85,241.46L223.53,268.55L225.08,269.23L239.05,274.39L240.6,274.83L251.47,277.14L253.02,277.35L263.89,277.86L265.44,277.8L276.3,276.36L277.86,276.01L288.72,272.59L290.27,271.97L301.14,266.67L302.69,265.79L315.11,257.72L316.66,256.59L330.63,245.54L332.18,244.23L353.92,224.8L355.47,223.38L383.41,198.72L384.96,197.45L402.04,184.56L403.59,183.5L417.56,174.77L419.11,173.9L434.63,166.14L436.19,165.46L445.5,161.65" style="vector-effect: non-scaling-stroke; fill: none; stroke: rgb(0, 204, 150); stroke-opacity: 1; stroke-width: 2px; opacity: 1;"/></g><g class="points"/><g class="text"/></g></g></g><g class="overplot"/><path class="xlines-above crisp" d="M49,433.5H495.5" style="fill: none; stroke-width: 1px; stroke: rgb(136, 136, 136); stroke-opacity: 1;"/><path class="ylines-above crisp" d="M49.5,60V433" style="fill: none; stroke-width: 1px; stroke: rgb(136, 136, 136); stroke-opacity: 1;"/><g class="overlines-above"/><g class="xaxislayer-above"><g class="xtick"><text text-anchor="middle" x="0" y="453.2" transform="translate(50,0)" style="font-family: Arial; font-size: 16px; fill: rgb(0, 0, 0); fill-opacity: 1; white-space: pre; opacity: 1;">0</text></g><g class="xtick"><text text-anchor="middle" x="0" y="453.2" style="font-family: Arial; font-size: 16px; fill: rgb(0, 0, 0); fill-opacity: 1; white-space: pre; opacity: 1;" transform="translate(143.14,0)">5</text></g><g class="xtick"><text text-anchor="middle" x="0" y="453.2" style="font-family: Arial; font-size: 16px; fill: rgb(0, 0, 0); fill-opacity: 1; white-space: pre; opacity: 1;" transform="translate(236.27,0)">10</text></g><g class="xtick"><text text-anchor="middle" x="0" y="453.2" style="font-family: Arial; font-size: 16px; fill: rgb(0, 0, 0); fill-opacity: 1; white-space: pre; opacity: 1;" transform="translate(329.41,0)">15</text></g><g class="xtick"><text text-anchor="middle" x="0" y="453.2" style="font-family: Arial; font-size: 16px; fill: rgb(0, 0, 0); fill-opacity: 1; white-space: pre; opacity: 1;" transform="translate(422.54,0)">20</text></g></g><g class="yaxislayer-above"><g class="ytick"><text text-anchor="end" x="45.8" y="5.6" transform="translate(0,433)" style="font-family: Arial; font-size: 16px; fill: rgb(0, 0, 0); fill-opacity: 1; white-space: pre; opacity: 1;">0</text></g><g class="ytick"><text text-anchor="end" x="45.8" y="5.6" style="font-family: Arial; font-size: 16px; fill: rgb(0, 0, 0); fill-opacity: 1; white-space: pre; opacity: 1;" transform="translate(0,358.4)">0.2</text></g><g class="ytick"><text text-anchor="end" x="45.8" y="5.6" style="font-family: Arial; font-size: 16px; fill: rgb(0, 0, 0); fill-opacity: 1; white-space: pre; opacity: 1;" transform="translate(0,283.8)">0.4</text></g><g class="ytick"><text text-anchor="end" x="45.8" y="5.6" style="font-family: Arial; font-size: 16px; fill: rgb(0, 0, 0); fill-opacity: 1; white-space: pre; opacity: 1;" transform="translate(0,209.2)">0.6</text></g><g class="ytick"><text text-anchor="end" x="45.8" y="5.6" style="font-family: Arial; font-size: 16px; fill: rgb(0, 0, 0); fill-opacity: 1; white-space: pre; opacity: 1;" transform="translate(0,134.6)">0.8</text></g><g class="ytick"><text text-anchor="end" x="45.8" y="5.6" style="font-family: Arial; font-size: 16px; fill: rgb(0, 0, 0); fill-opacity: 1; white-space: pre; opacity: 1;" transform="translate(0,60)">1</text></g></g><g class="overaxes-above"/></g><g class="subplot x2y2"><g class="layer-subplot"><g class="shapelayer"/><g class="imagelayer"/></g><g class="gridlayer"><g class="x2"><path class="x2grid crisp" transform="translate(687.64,0)" d="M0,60v373" style="stroke: rgb(170, 170, 170); stroke-opacity: 1; stroke-width: 1px;"/><path class="x2grid crisp" transform="translate(780.77,0)" d="M0,60v373" style="stroke: rgb(170, 170, 170); stroke-opacity: 1; stroke-width: 1px;"/><path class="x2grid crisp" transform="translate(873.9100000000001,0)" d="M0,60v373" style="stroke: rgb(170, 170, 170); stroke-opacity: 1; stroke-width: 1px;"/><path class="x2grid crisp" transform="translate(967.04,0)" d="M0,60v373" style="stroke: rgb(170, 170, 170); stroke-opacity: 1; stroke-width: 1px;"/></g><g class="y2"><path class="y2grid crisp" transform="translate(0,358.4)" d="M594.5,0h445.49999999999994" style="stroke: rgb(170, 170, 170); stroke-opacity: 1; stroke-width: 1px;"/><path class="y2grid crisp" transform="translate(0,283.8)" d="M594.5,0h445.49999999999994" style="stroke: rgb(170, 170, 170); stroke-opacity: 1; stroke-width: 1px;"/><path class="y2grid crisp" transform="translate(0,209.2)" d="M594.5,0h445.49999999999994" style="stroke: rgb(170, 170, 170); stroke-opacity: 1; stroke-width: 1px;"/><path class="y2grid crisp" transform="translate(0,134.6)" d="M594.5,0h445.49999999999994" style="stroke: rgb(170, 170, 170); stroke-opacity: 1; stroke-width: 1px;"/></g></g><g class="zerolinelayer"/><path class="xlines-below"/><path class="ylines-below"/><g class="overlines-below"/><g class="xaxislayer-below"/><g class="yaxislayer-below"/><g class="overaxes-below"/><g class="plot" transform="translate(594.5,60)" clip-path="url(#clipe35d2dx2y2plot)"><g class="scatterlayer mlayer"><g class="trace scatter tracede4b40" style="stroke-miterlimit: 2; opacity: 1;"><g class="fills"/><g class="errorbars"/><g class="lines"><path class="js-line" d="M0,0L37.25,0L38.81,0.87L63.64,50.45L65.2,53.42L85.37,90.53L86.93,93.26L105.55,124.39L107.11,126.84L124.18,152.32L125.73,154.49L141.26,174.83L142.81,176.72L156.78,192.52L158.33,194.14L172.3,207.41L173.85,208.74L186.27,218.32L187.82,219.38L200.24,226.78L201.79,227.56L212.66,232.2L214.21,232.73L225.08,235.61L226.63,235.89L237.5,237L239.05,237.03L249.91,236.35L251.47,236.13L262.33,233.68L263.89,233.2L274.75,228.98L276.3,228.26L287.17,222.3L288.72,221.33L301.14,212.45L302.69,211.21L315.11,200.2L316.66,198.69L330.63,183.87L332.18,182.08L346.16,164.81L347.71,162.76L363.23,140.9L364.78,138.58L381.86,111.57L383.41,108.98L402.04,76.38L403.59,73.54L425.32,32.02L426.87,28.94L440.84,0.6L442.4,0L445.5,0" style="vector-effect: non-scaling-stroke; fill: none; stroke: rgb(171, 99, 250); stroke-opacity: 1; stroke-width: 2px; opacity: 1;"/></g><g class="points"/><g class="text"/></g><g class="trace scatter trace2b8232" style="stroke-miterlimit: 2; opacity: 1;"><g class="fills"/><g class="errorbars"/><g class="lines"><path class="js-line" d="M0,199.47L21.73,228.13L23.28,230.08L45.02,255.81L46.57,257.54L65.2,277.01L66.75,278.52L83.82,294.1L85.37,295.41L102.45,308.67L104,309.77L119.52,319.73L121.08,320.62L135.05,327.81L136.6,328.51L150.57,333.96L152.12,334.47L166.09,338.15L167.64,338.46L181.61,340.36L183.17,340.48L197.14,340.58L198.69,340.5L212.66,338.81L214.21,338.52L226.63,335.52L228.18,335.05L242.15,329.99L243.71,329.33L257.68,322.52L259.23,321.67L274.75,312.12L276.3,311.06L290.27,300.73L291.83,299.49L308.9,284.71L310.45,283.26L327.53,266.26L329.08,264.61L347.71,243.67L349.26,241.83L369.44,216.57L370.99,214.53L392.72,184.65L394.28,182.42L419.11,145.34L420.66,142.93L445.5,103.28" style="vector-effect: non-scaling-stroke; fill: none; stroke: rgb(255, 161, 90); stroke-opacity: 1; stroke-width: 2px; opacity: 1;"/></g><g class="points"/><g class="text"/></g><g class="trace scatter trace6eef82" style="stroke-miterlimit: 2; opacity: 1;"><g class="fills"/><g class="errorbars"/><g class="lines"><path class="js-line" d="M0,47.27L21.73,86.64L23.28,89.32L43.46,122.36L45.02,124.76L62.09,149.63L63.64,151.75L80.72,173.46L82.27,175.28L96.24,190.48L97.79,192.04L111.76,204.79L113.32,206.07L125.73,215.24L127.29,216.26L139.7,223.32L141.26,224.07L152.12,228.47L153.67,228.97L164.54,231.67L166.09,231.93L176.96,232.91L178.51,232.93L189.38,232.19L190.93,231.96L201.79,229.51L203.35,229.03L214.21,224.87L215.76,224.15L226.63,218.31L228.18,217.36L240.6,208.67L242.15,207.46L254.57,196.71L256.12,195.24L268.54,182.5L270.09,180.79L284.06,164.19L285.62,162.22L301.14,141.16L302.69,138.93L319.77,112.85L321.32,110.35L339.95,78.81L341.5,76.06L363.23,35.78L364.78,32.79L381.86,0L383.41,0L445.5,0" style="vector-effect: non-scaling-stroke; fill: none; stroke: rgb(25, 211, 243); stroke-opacity: 1; stroke-width: 2px; opacity: 1;"/></g><g class="points"/><g class="text"/></g></g></g><g class="overplot"/><path class="xlines-above crisp" d="M593.5,433.5H1040" style="fill: none; stroke-width: 1px; stroke: rgb(136, 136, 136); stroke-opacity: 1;"/><path class="ylines-above crisp" d="M594,60V433" style="fill: none; stroke-width: 1px; stroke: rgb(136, 136, 136); stroke-opacity: 1;"/><g class="overlines-above"/><g class="xaxislayer-above"><g class="x2tick"><text text-anchor="middle" x="0" y="453.2" transform="translate(594.5,0)" style="font-family: Arial; font-size: 16px; fill: rgb(0, 0, 0); fill-opacity: 1; white-space: pre; opacity: 1;">0</text></g><g class="x2tick"><text text-anchor="middle" x="0" y="453.2" style="font-family: Arial; font-size: 16px; fill: rgb(0, 0, 0); fill-opacity: 1; white-space: pre; opacity: 1;" transform="translate(687.64,0)">5</text></g><g class="x2tick"><text text-anchor="middle" x="0" y="453.2" style="font-family: Arial; font-size: 16px; fill: rgb(0, 0, 0); fill-opacity: 1; white-space: pre; opacity: 1;" transform="translate(780.77,0)">10</text></g><g class="x2tick"><text text-anchor="middle" x="0" y="453.2" style="font-family: Arial; font-size: 16px; fill: rgb(0, 0, 0); fill-opacity: 1; white-space: pre; opacity: 1;" transform="translate(873.9100000000001,0)">15</text></g><g class="x2tick"><text text-anchor="middle" x="0" y="453.2" style="font-family: Arial; font-size: 16px; fill: rgb(0, 0, 0); fill-opacity: 1; white-space: pre; opacity: 1;" transform="translate(967.04,0)">20</text></g></g><g class="yaxislayer-above"><g class="y2tick"><text text-anchor="end" x="590.3" y="5.6" transform="translate(0,433)" style="font-family: Arial; font-size: 16px; fill: rgb(0, 0, 0); fill-opacity: 1; white-space: pre; opacity: 1;">0</text></g><g class="y2tick"><text text-anchor="end" x="590.3" y="5.6" style="font-family: Arial; font-size: 16px; fill: rgb(0, 0, 0); fill-opacity: 1; white-space: pre; opacity: 1;" transform="translate(0,358.4)">0.2</text></g><g class="y2tick"><text text-anchor="end" x="590.3" y="5.6" style="font-family: Arial; font-size: 16px; fill: rgb(0, 0, 0); fill-opacity: 1; white-space: pre; opacity: 1;" transform="translate(0,283.8)">0.4</text></g><g class="y2tick"><text text-anchor="end" x="590.3" y="5.6" style="font-family: Arial; font-size: 16px; fill: rgb(0, 0, 0); fill-opacity: 1; white-space: pre; opacity: 1;" transform="translate(0,209.2)">0.6</text></g><g class="y2tick"><text text-anchor="end" x="590.3" y="5.6" style="font-family: Arial; font-size: 16px; fill: rgb(0, 0, 0); fill-opacity: 1; white-space: pre; opacity: 1;" transform="translate(0,134.6)">0.8</text></g><g class="y2tick"><text text-anchor="end" x="590.3" y="5.6" style="font-family: Arial; font-size: 16px; fill: rgb(0, 0, 0); fill-opacity: 1; white-space: pre; opacity: 1;" transform="translate(0,60)">1</text></g></g><g class="overaxes-above"/></g></g><g class="polarlayer"/><g class="ternarylayer"/><g class="geolayer"/><g class="funnelarealayer"/><g class="pielayer"/><g class="iciclelayer"/><g class="treemaplayer"/><g class="sunburstlayer"/><g class="glimages"/><defs id="topdefs-e35d2d"><g class="clips"/></defs><g class="layer-above"><g class="imagelayer"/><g class="shapelayer"/></g><g class="infolayer"><g class="g-gtitle"/><g class="g-xtitle"/><g class="g-x2title"/><g class="g-ytitle"/><g class="g-y2title"/><g class="annotation" data-index="0" style="opacity: 1;"><g class="annotation-text-g" transform="rotate(0,272.75,49)"><g class="cursor-pointer" transform="translate(227,38)"><rect class="bg" x="0.5" y="0.5" width="91" height="21" style="stroke-width: 1px; stroke: rgb(0, 0, 0); stroke-opacity: 0; fill: rgb(0, 0, 0); fill-opacity: 0;"/><text class="annotation-text" text-anchor="middle" x="45.9248046875" y="16.400390625" style="font-family: Arial; font-size: 16px; fill: rgb(0, 0, 0); fill-opacity: 1; white-space: pre;">Wind Power</text></g></g></g><g class="annotation" data-index="1" style="opacity: 1;"><g class="annotation-text-g" transform="rotate(0,817.25,49)"><g class="cursor-pointer" transform="translate(780,38)"><rect class="bg" x="0.5" y="0.5" width="74" height="21" style="stroke-width: 1px; stroke: rgb(0, 0, 0); stroke-opacity: 0; fill: rgb(0, 0, 0); fill-opacity: 0;"/><text class="annotation-text" text-anchor="middle" x="37.5625" y="16.400390625" style="font-family: Arial; font-size: 16px; fill: rgb(0, 0, 0); fill-opacity: 1; white-space: pre;">Grid Price</text></g></g></g></g></svg>