<svg class="main-svg" xmlns="http://www.w3.org/2000/svg" xmlns:xlink="http://www.w3.org/1999/xlink" width="1311" height="602" style=""><rect x="0" y="0" width="1311" height="602" style="fill: rgb(255, 255, 255); fill-opacity: 1;"/><defs id="defs-e4a56d"><g class="clips"><clipPath id="clipe4a56dxyplot" class="plotclip"><rect width="1203" height="491"/></clipPath><clipPath id="clipe4a56dxy2plot" class="plotclip"><rect width="1203" height="491"/></clipPath><clipPath class="axesclip" id="clipe4a56dx"><rect x="50" y="0" width="1203" height="602"/></clipPath><clipPath class="axesclip" id="clipe4a56dy"><rect x="0" y="61" width="1311" height="491"/></clipPath><clipPath class="axesclip" id="clipe4a56dxy"><rect x="50" y="61" width="1203" height="491"/></clipPath><clipPath class="axesclip" id="clipe4a56dy2"><rect x="0" y="61" width="1311" height="491"/></clipPath><clipPath class="axesclip" id="clipe4a56dxy2"><rect x="50" y="61" width="1203" height="491"/></clipPath></g><g class="gradients"/><g class="patterns"/></defs><g class="bglayer"/><g class="layer-below"><g class="imagelayer"/><g class="shapelayer"/></g><g class="cartesianlayer"><g class="subplot xy"><g class="layer-subplot"><g class="shapelayer"/><g class="imagelayer"/></g><g class="gridlayer"><g class="x"><path class="xgrid crisp" transform="translate(301.5,0)" d="M0,61v491" style="stroke: rgb(224, 224, 224); stroke-opacity: 1; stroke-width: 1px;"/><path class="xgrid crisp" transform="translate(553,0)" d="M0,61v491" style="stroke: rgb(224, 224, 224); stroke-opacity: 1; stroke-width: 1px;"/><path class="xgrid crisp" transform="translate(804.49,0)" d="M0,61v491" style="stroke: rgb(224, 224, 224); stroke-opacity: 1; stroke-width: 1px;"/><path class="xgrid crisp" transform="translate(1055.99,0)" d="M0,61v491" style="stroke: rgb(224, 224, 224); stroke-opacity: 1; stroke-width: 1px;"/></g><g class="y"><path class="ygrid crisp" transform="translate(0,453.8)" d="M50,0h1203" style="stroke: rgb(224, 224, 224); stroke-opacity: 1; stroke-width: 1px;"/><path class="ygrid crisp" transform="translate(0,355.6)" d="M50,0h1203" style="stroke: rgb(224, 224, 224); stroke-opacity: 1; stroke-width: 1px;"/><path class="ygrid crisp" transform="translate(0,257.4)" d="M50,0h1203" style="stroke: rgb(224, 224, 224); stroke-opacity: 1; stroke-width: 1px;"/><path class="ygrid crisp" transform="translate(0,159.2)" d="M50,0h1203" style="stroke: rgb(224, 224, 224); stroke-opacity: 1; stroke-width: 1px;"/></g><g class="y2"><path class="y2grid crisp" transform="translate(0,527.25)" d="M50,0h1203" style="stroke: rgb(255, 255, 255); stroke-opacity: 1; stroke-width: 1px;"/><path class="y2grid crisp" transform="translate(0,438.91)" d="M50,0h1203" style="stroke: rgb(255, 255, 255); stroke-opacity: 1; stroke-width: 1px;"/><path class="y2grid crisp" transform="translate(0,350.57)" d="M50,0h1203" style="stroke: rgb(255, 255, 255); stroke-opacity: 1; stroke-width: 1px;"/><path class="y2grid crisp" transform="translate(0,262.23)" d="M50,0h1203" style="stroke: rgb(255, 255, 255); stroke-opacity: 1; stroke-width: 1px;"/><path class="y2grid crisp" transform="translate(0,173.89)" d="M50,0h1203" style="stroke: rgb(255, 255, 255); stroke-opacity: 1; stroke-width: 1px;"/></g></g><g class="zerolinelayer"><path class="y2zl zl crisp" transform="translate(0,85.55)" d="M50,0h1203" style="stroke: rgb(255, 255, 255); stroke-opacity: 1; stroke-width: 2px;"/></g><path class="xlines-below"/><path class="ylines-below"/><g class="overlines-below"><path class="xy2-x"/><path class="xy2-y"/></g><g class="xaxislayer-below"/><g class="yaxislayer-below"/><g class="overaxes-below"><g class="xy2-x"/><g class="xy2-y"/></g><g class="plot" transform="translate(50,61)" clip-path="url(#clipe4a56dxyplot)"><g class="scatterlayer mlayer"><g class="trace scatter tracef1baac" style="stroke-miterlimit: 2; opacity: 1;"><g class="fills"/><g class="errorbars"/><g class="lines"><path class="js-line" d="M0,1.72L113.17,48.83L117.37,50.69L167.67,73.92L171.86,75.93L217.97,99L222.16,101.17L276.65,130.31L280.84,132.6L410.78,203.63L414.97,205.81L503,251.73L507.19,254.17L532.34,269.77L536.53,272.52L565.87,292.8L570.06,295.83L611.98,327.14L616.17,330.34L691.62,387.37L695.81,390.41L733.54,416.69L737.73,419.47L762.88,435.17L767.07,437.61L792.22,451.28L796.41,453.39L825.75,467.29L829.94,469.17L867.67,485.12L871.86,486.8L880.24,490.13L884.44,491" style="vector-effect: non-scaling-stroke; fill: none; stroke: rgb(239, 85, 59); stroke-opacity: 1; stroke-width: 2px; opacity: 1;"/></g><g class="points"/><g class="text"/></g><g class="trace scatter tracea732d4" style="stroke-miterlimit: 2; opacity: 1;"><g class="fills"/><g class="errorbars"/><g class="lines"><path class="js-line" d="M0,269.5L54.49,296.62L58.68,298.63L108.98,321.73L113.17,323.57L159.28,342.98L163.47,344.66L209.58,362.27L213.77,363.79L259.88,379.52L264.07,380.87L310.18,394.64L314.37,395.8L356.29,406.56L360.48,407.55L398.21,415.75L402.4,416.58L444.31,424L448.51,424.65L486.23,429.79L490.42,430.27L528.15,433.92L532.34,434.24L570.06,436.39L574.25,436.54L611.98,437.18L616.17,437.17L658.09,436.12L662.28,435.92L704.2,433.02L708.39,432.64L750.3,427.92L754.49,427.36L796.41,420.82L800.6,420.08L842.52,411.76L846.71,410.84L888.63,400.78L892.82,399.69L934.74,387.92L938.93,386.66L985.03,371.8L989.23,370.36L1031.14,355.19L1035.33,353.59L1077.25,336.89L1081.44,335.14L1127.55,315.08L1131.74,313.18L1182.04,289.41L1186.23,287.35L1203,279" style="vector-effect: non-scaling-stroke; fill: none; stroke: rgb(0, 204, 150); stroke-opacity: 1; stroke-width: 2px; opacity: 1;"/></g><g class="points"/><g class="text"/></g><g class="trace scatter trace37b3b7" style="stroke-miterlimit: 2; opacity: 1;"><g class="fills"/><g class="errorbars"/><g class="lines"><path class="js-line" d="M0,318.94L8.38,319.2L12.57,319.56L33.53,320.58L37.72,320.62L50.3,320.24L54.49,319.69L75.45,316.1L79.64,315.11L125.75,303.02L129.94,301.85L176.05,287.87L180.24,286.54L226.35,272.6L230.54,271.5L259.88,264.85L264.07,264.07L289.22,260.37L293.41,259.92L314.37,258.54L318.56,258.45L339.52,258.91L343.71,259.19L364.67,261.46L368.86,262.09L389.82,266.07L394.01,267.02L419.16,273.76L423.36,275.04L440.12,280.14L444.31,280.6L461.08,280.05L465.27,278.93L473.66,273.26L477.85,270.18L498.8,255.21L503,251.04L515.57,237.7L519.76,233.09L536.53,215.89L540.72,211.94L557.49,197.56L561.68,194.31L574.25,186.12L578.45,183.84L591.02,178.01L595.21,176.39L607.79,172.47L611.98,171.48L624.55,169.48L628.75,169.2L641.32,170L645.51,170.53L662.28,173.97L666.47,175.14L683.24,181.02L687.43,182.85L704.2,191.25L708.39,193.59L725.15,204.04L729.34,207.04L737.73,213.23L741.92,217.49L762.88,241.61L767.07,246.5L796.41,279.53L800.6,283.45L808.99,290.1L813.18,292.79L838.33,308.15L842.52,310.3L863.48,319.23L867.67,320.85L884.44,326.72" style="vector-effect: non-scaling-stroke; fill: none; stroke: rgb(171, 99, 250); stroke-opacity: 1; stroke-width: 2px; opacity: 1;"/></g><g class="points"/><g class="text"/></g><g class="trace scatter tracef9466a" style="stroke-miterlimit: 2; opacity: 1;"><g class="fills"/><g class="errorbars"/><g class="lines"><path class="js-line" d="M0,112.81L20.96,115.08L25.15,115.32L46.11,115.45L50.3,115.26L71.26,113.28L75.45,112.68L96.41,108.77L100.6,107.82L125.75,101.09L129.94,99.82L163.47,88.75L167.67,87.3L217.97,70.56L222.16,69.33L247.31,62.9L251.5,62.01L272.46,58.55L276.65,58.07L293.41,56.9L297.61,56.81L314.37,57.27L318.56,57.59L335.33,59.76L339.52,60.51L356.29,64.4L360.48,65.58L377.25,71.11L381.44,72.69L402.4,81.65L406.59,83.64L431.74,96.77L435.93,99.12L469.46,119.13L473.66,121.72L528.15,154.85L532.34,157.23L557.49,170.55L561.68,172.58L582.64,181.79L586.83,183.43L607.79,190.47L611.98,191.65L628.75,195.54L632.94,196.31L649.7,198.56L653.9,198.91L670.66,199.55L674.85,199.51L695.81,198.25L700,197.79L720.96,194.6L725.15,193.8L750.3,188.1L754.49,187.03L804.79,173.12L808.99,171.98L842.52,163.78L846.71,162.92L871.86,158.81L876.05,158.33L897.01,156.86L901.2,156.77L922.16,157.41L926.35,157.76L947.31,160.65L951.5,161.45L972.46,166.56L976.65,167.8L997.61,174.96L1001.8,176.58L1026.95,187.4L1031.14,189.37L1060.48,204.09L1064.68,206.3L1140.13,245.67L1144.32,247.64L1169.47,258.59L1173.66,260.24L1194.62,267.63L1198.81,268.92L1203,270.15" style="vector-effect: non-scaling-stroke; fill: none; stroke: rgb(255, 161, 90); stroke-opacity: 1; stroke-width: 2px; opacity: 1;"/></g><g class="points"/><g class="text"/></g></g></g><g class="overplot"><g class="xy2" transform="translate(50,61)" clip-path="url(#clipe4a56dxy2plot)"><g class="scatterlayer mlayer"><g class="trace scatter trace30a17b" style="stroke-miterlimit: 2; opacity: 1;"><g class="fills"/><g class="errorbars"/><g class="lines"><path class="js-line" d="M0,24.55L364.67,24.92L368.86,25.44L377.25,28.02L381.44,29.97L435.93,58.35L440.12,61.32L444.31,65.82L448.51,71.6L461.08,89.26L465.27,97.3L473.66,120.97L477.85,133.1L503,203.58L507.19,216.7L528.15,284.06L532.34,296.37L544.91,330.62L549.1,341.17L561.68,370.47L565.87,379.33L578.45,402.14L582.64,408.85L595.21,426.81L599.4,432.09L611.98,445.83L616.17,449.72L624.55,456.49L628.75,459.23L637.13,462.75L641.32,464.07L649.7,465.84L653.9,466.29L662.28,466.32L666.47,465.91L674.85,464.22L679.05,462.96L687.43,459.34L691.62,457.02L704.2,448.33L708.39,444.86L720.96,432.8L725.15,427.69L737.73,410.64L741.92,401.96L754.49,371.76L758.69,360.53L788.03,278.74L792.22,266.6L800.6,243.59L804.79,233.85L813.18,216.51L817.37,208.41L842.52,160.83L846.71,154.18L859.29,135.54L863.48,129.76L880.24,108.29L884.44,24.55" style="vector-effect: non-scaling-stroke; fill: none; stroke: rgb(99, 110, 250); stroke-opacity: 1; stroke-width: 2px; opacity: 1;"/></g><g class="points"/><g class="text"/></g></g></g></g><path class="xlines-above crisp" d="M49,552.5H1253" style="fill: none; stroke-width: 1px; stroke: rgb(136, 136, 136); stroke-opacity: 1;"/><path class="ylines-above crisp" d="M49.5,61V552" style="fill: none; stroke-width: 1px; stroke: rgb(136, 136, 136); stroke-opacity: 1;"/><g class="overlines-above"><path class="xy2-x crisp" d="M0,0" style="fill: none;"/><path class="xy2-y crisp" d="M0,0" style="fill: none;"/></g><g class="xaxislayer-above"><g class="xtick"><text text-anchor="middle" x="0" y="572.2" transform="translate(50,0)" style="font-family: Arial; font-size: 16px; fill: rgb(0, 0, 0); fill-opacity: 1; white-space: pre; opacity: 1;">0</text></g><g class="xtick"><text text-anchor="middle" x="0" y="572.2" style="font-family: Arial; font-size: 16px; fill: rgb(0, 0, 0); fill-opacity: 1; white-space: pre; opacity: 1;" transform="translate(301.5,0)">5</text></g><g class="xtick"><text text-anchor="middle" x="0" y="572.2" style="font-family: Arial; font-size: 16px; fill: rgb(0, 0, 0); fill-opacity: 1; white-space: pre; opacity: 1;" transform="translate(553,0)">10</text></g><g class="xtick"><text text-anchor="middle" x="0" y="572.2" style="font-family: Arial; font-size: 16px; fill: rgb(0, 0, 0); fill-opacity: 1; white-space: pre; opacity: 1;" transform="translate(804.49,0)">15</text></g><g class="xtick"><text text-anchor="middle" x="0" y="572.2" style="font-family: Arial; font-size: 16px; fill: rgb(0, 0, 0); fill-opacity: 1; white-space: pre; opacity: 1;" transform="translate(1055.99,0)">20</text></g></g><g class="yaxislayer-above"><g class="ytick"><text text-anchor="end" x="45.8" y="5.6" transform="translate(0,552)" style="font-family: Arial; font-size: 16px; fill: rgb(0, 0, 0); fill-opacity: 1; white-space: pre; opacity: 1;">0</text></g><g class="ytick"><text text-anchor="end" x="45.8" y="5.6" style="font-family: Arial; font-size: 16px; fill: rgb(0, 0, 0); fill-opacity: 1; white-space: pre; opacity: 1;" transform="translate(0,453.8)">0.2</text></g><g class="ytick"><text text-anchor="end" x="45.8" y="5.6" style="font-family: Arial; font-size: 16px; fill: rgb(0, 0, 0); fill-opacity: 1; white-space: pre; opacity: 1;" transform="translate(0,355.6)">0.4</text></g><g class="ytick"><text text-anchor="end" x="45.8" y="5.6" style="font-family: Arial; font-size: 16px; fill: rgb(0, 0, 0); fill-opacity: 1; white-space: pre; opacity: 1;" transform="translate(0,257.4)">0.6</text></g><g class="ytick"><text text-anchor="end" x="45.8" y="5.6" style="font-family: Arial; font-size: 16px; fill: rgb(0, 0, 0); fill-opacity: 1; white-space: pre; opacity: 1;" transform="translate(0,159.2)">0.8</text></g><g class="ytick"><text text-anchor="end" x="45.8" y="5.6" style="font-family: Arial; font-size: 16px; fill: rgb(0, 0, 0); fill-opacity: 1; white-space: pre; opacity: 1;" transform="translate(0,61)">1</text></g></g><g class="overaxes-above"><g class="xy2-x"/><g class="xy2-y"><g class="y2tick"><text text-anchor="start" x="1254" y="5.6" transform="translate(0,527.25)" style="font-family: Arial; font-size: 16px; fill: rgb(0, 0, 0); fill-opacity: 1; white-space: pre; opacity: 1;">−500μ</text></g><g class="y2tick"><text text-anchor="start" x="1254" y="5.6" style="font-family: Arial; font-size: 16px; fill: rgb(0, 0, 0); fill-opacity: 1; white-space: pre; opacity: 1;" transform="translate(0,438.91)">−400μ</text></g><g class="y2tick"><text text-anchor="start" x="1254" y="5.6" style="font-family: Arial; font-size: 16px; fill: rgb(0, 0, 0); fill-opacity: 1; white-space: pre; opacity: 1;" transform="translate(0,350.57)">−300μ</text></g><g class="y2tick"><text text-anchor="start" x="1254" y="5.6" style="font-family: Arial; font-size: 16px; fill: rgb(0, 0, 0); fill-opacity: 1; white-space: pre; opacity: 1;" transform="translate(0,262.23)">−200μ</text></g><g class="y2tick"><text text-anchor="start" x="1254" y="5.6" style="font-family: Arial; font-size: 16px; fill: rgb(0, 0, 0); fill-opacity: 1; white-space: pre; opacity: 1;" transform="translate(0,173.89)">−100μ</text></g><g class="y2tick"><text text-anchor="start" x="1254" y="5.6" style="font-family: Arial; font-size: 16px; fill: rgb(0, 0, 0); fill-opacity: 1; white-space: pre; opacity: 1;" transform="translate(0,85.55)">0</text></g></g></g></g><g class="subplot xy2"/></g><g class="polarlayer"/><g class="ternarylayer"/><g class="geolayer"/><g class="funnelarealayer"/><g class="pielayer"/><g class="iciclelayer"/><g class="treemaplayer"/><g class="sunburstlayer"/><g class="glimages"/><defs id="topdefs-e4a56d"><g class="clips"/><clipPath id="legende4a56d"><rect width="687" height="34" x="0" y="0"/></clipPath></defs><g class="layer-above"><g class="imagelayer"/><g class="shapelayer"/></g><g class="infolayer"><g class="legend" pointer-events="all" transform="translate(308,11.899999999999956)"><rect class="bg" shape-rendering="crispEdges" width="687" height="34" x="0" y="0" style="stroke: rgb(68, 68, 68); stroke-opacity: 1; fill: rgb(255, 255, 255); fill-opacity: 1; stroke-width: 0px;"/><g class="scrollbox" transform="" clip-path="url(#legende4a56d)"><g class="groups"><g class="traces" transform="translate(0,16.9)" style="opacity: 1;"><text class="legendtext" text-anchor="start" x="40" y="6.24" style="font-family: Arial; font-size: 16px; fill: rgb(0, 0, 0); fill-opacity: 1; white-space: pre;">Reward</text><g class="layers" style="opacity: 1;"><g class="legendfill"/><g class="legendlines"><path class="js-line" d="M5,0h30" style="fill: none; stroke: rgb(99, 110, 250); stroke-opacity: 1; stroke-width: 2px;"/></g><g class="legendsymbols"><g class="legendpoints"/></g></g><rect class="legendtoggle" x="0" y="-11.9" width="97.63750076293945" height="23.8" style="fill: rgb(0, 0, 0); fill-opacity: 0;"/></g><g class="traces" transform="translate(100.13750076293945,16.9)" style="opacity: 1;"><text class="legendtext" text-anchor="start" x="40" y="6.24" style="font-family: Arial; font-size: 16px; fill: rgb(0, 0, 0); fill-opacity: 1; white-space: pre;">Load Left</text><g class="layers" style="opacity: 1;"><g class="legendfill"/><g class="legendlines"><path class="js-line" d="M5,0h30" style="fill: none; stroke: rgb(239, 85, 59); stroke-opacity: 1; stroke-width: 2px;"/></g><g class="legendsymbols"><g class="legendpoints"/></g></g><rect class="legendtoggle" x="0" y="-11.9" width="109.58125305175781" height="23.8" style="fill: rgb(0, 0, 0); fill-opacity: 0;"/></g><g class="traces" transform="translate(212.21875381469727,16.9)" style="opacity: 1;"><text class="legendtext" text-anchor="start" x="40" y="6.24" style="font-family: Arial; font-size: 16px; fill: rgb(0, 0, 0); fill-opacity: 1; white-space: pre;">Grid Price</text><g class="layers" style="opacity: 1;"><g class="legendfill"/><g class="legendlines"><path class="js-line" d="M5,0h30" style="fill: none; stroke: rgb(0, 204, 150); stroke-opacity: 1; stroke-width: 2px;"/></g><g class="legendsymbols"><g class="legendpoints"/></g></g><rect class="legendtoggle" x="0" y="-11.9" width="113.625" height="23.8" style="fill: rgb(0, 0, 0); fill-opacity: 0;"/></g><g class="traces" transform="translate(328.34375381469727,16.9)" style="opacity: 1;"><text class="legendtext" text-anchor="start" x="40" y="6.24" style="font-family: Arial; font-size: 16px; fill: rgb(0, 0, 0); fill-opacity: 1; white-space: pre;">WindCORE utilization 1</text><g class="layers" style="opacity: 1;"><g class="legendfill"/><g class="legendlines"><path class="js-line" d="M5,0h30" style="fill: none; stroke: rgb(171, 99, 250); stroke-opacity: 1; stroke-width: 2px;"/></g><g class="legendsymbols"><g class="legendpoints"/></g></g><rect class="legendtoggle" x="0" y="-11.9" width="210.47500610351562" height="23.8" style="fill: rgb(0, 0, 0); fill-opacity: 0;"/></g><g class="traces" transform="translate(541.3187599182129,16.9)" style="opacity: 1;"><text class="legendtext" text-anchor="start" x="40" y="6.24" style="font-family: Arial; font-size: 16px; fill: rgb(0, 0, 0); fill-opacity: 1; white-space: pre;">Wind Power 1</text><g class="layers" style="opacity: 1;"><g class="legendfill"/><g class="legendlines"><path class="js-line" d="M5,0h30" style="fill: none; stroke: rgb(255, 161, 90); stroke-opacity: 1; stroke-width: 2px;"/></g><g class="legendsymbols"><g class="legendpoints"/></g></g><rect class="legendtoggle" x="0" y="-11.9" width="142.9000015258789" height="23.8" style="fill: rgb(0, 0, 0); fill-opacity: 0;"/></g></g></g><rect class="scrollbar" rx="20" ry="3" width="0" height="0" x="0" y="0" style="fill: rgb(128, 139, 164); fill-opacity: 1;"/></g><g class="g-gtitle"><text class="gtitle" x="65.55" y="30.5" text-anchor="start" dy="0em" style="font-family: Arial; font-size: 22px; fill: rgb(0, 0, 0); opacity: 1; font-weight: normal; white-space: pre;">Evaluation Episode after 42932 Training Episodes</text></g><g class="g-xtitle"/><g class="g-ytitle"/><g class="g-y2title"/></g></svg>